<?xml version="1.0" standalone="no"?>
<!DOCTYPE svg PUBLIC "-//W3C//DTD SVG 20010904//EN"
 "http://www.w3.org/TR/2001/REC-SVG-20010904/DTD/svg10.dtd">
<svg version="1.0" xmlns="http://www.w3.org/2000/svg"
 width="512.000000pt" height="512.000000pt" viewBox="0 0 512.000000 512.000000"
 preserveAspectRatio="xMidYMid meet">
<metadata>
Created by potrace 1.14, written by Peter Selinger 2001-2017
</metadata>
<g transform="translate(0.000000,512.000000) scale(0.100000,-0.100000)"
fill="#000000" stroke="none">
<path d="M407 5105 c-55 -21 -157 -76 -157 -86 0 -5 -15 -15 -32 -23 -36 -15
-74 -54 -103 -103 -11 -18 -23 -33 -28 -33 -4 0 -6 -4 -2 -9 3 -6 -3 -14 -12
-20 -10 -6 -14 -11 -10 -11 5 0 0 -12 -11 -27 -10 -16 -26 -52 -35 -82 -16
-49 -17 -202 -17 -1958 0 -1889 2 -1993 32 -1993 5 0 7 -4 3 -9 -6 -11 15 -61
27 -61 4 0 8 -7 8 -15 0 -8 5 -15 12 -15 6 0 9 -3 5 -6 -8 -8 36 -68 78 -109
60 -58 157 -125 198 -136 23 -6 49 -14 57 -16 23 -8 63 -15 88 -15 12 0 22 -3
22 -7 0 -3 435 -6 967 -6 952 1 966 1 973 20 4 11 6 23 3 27 -2 5 0 8 5 8 5 0
9 6 10 13 1 14 10 51 12 55 2 1 3 5 5 10 1 4 7 20 13 35 7 16 12 34 12 40 0 7
12 46 25 87 14 41 25 86 25 100 l0 25 -1012 -1 c-1099 0 -1039 -3 -1101 54
-60 56 -57 -30 -57 1799 0 1331 3 1673 13 1674 6 0 892 2 1967 2 l1955 2 0
-828 0 -829 30 7 c17 4 37 8 45 9 9 1 20 5 25 8 30 18 138 30 220 24 l90 -6
-2 947 c-1 522 -4 962 -7 978 -2 17 -7 41 -11 55 -3 14 -8 36 -11 50 -3 14 -9
29 -15 34 -5 6 -9 16 -9 24 0 55 -219 277 -259 262 -2 -1 -7 2 -10 7 -3 5 -28
20 -56 34 l-50 24 -1940 2 c-1638 1 -1946 0 -1978 -12z"/>
<path d="M980 3515 c-1 -19 -1 -91 -1 -160 0 -69 0 -147 1 -175 l0 -50 209 0
209 0 -1 208 -2 207 -207 3 -208 2 0 -35z"/>
<path d="M1778 3538 c-2 -7 -4 -101 -4 -208 l1 -195 995 0 995 0 0 205 0 205
-991 3 c-789 2 -993 0 -996 -10z"/>
<path d="M979 2720 c-2 -146 1 -363 6 -369 4 -3 98 -6 210 -6 l203 0 0 202 c0
182 -2 203 -16 204 -10 1 -104 2 -209 2 l-193 2 -1 -35z"/>
<path d="M1799 2750 l-24 -5 -1 -195 c0 -107 3 -197 7 -200 4 -3 452 -5 996
-5 l988 0 0 198 c0 115 -4 201 -10 205 -11 7 -1921 9 -1956 2z"/>
<path d="M4575 2342 c-3 -3 -15 -7 -26 -9 -45 -7 -90 -42 -216 -168 -132 -131
-132 -132 -116 -155 22 -31 39 -48 91 -89 24 -18 41 -35 39 -37 -6 -6 455
-464 467 -464 12 0 249 237 284 284 42 55 24 245 -25 263 -7 3 -11 8 -8 13 2
4 -6 12 -19 19 -12 7 -33 26 -47 43 -13 17 -42 48 -64 69 -22 21 -51 50 -65
63 -14 13 -43 45 -65 70 -22 25 -45 46 -52 46 -7 0 -13 4 -13 9 0 8 -37 24
-52 22 -5 -1 -8 3 -8 8 0 5 -8 8 -17 6 -10 -1 -22 0 -28 3 -13 8 -53 10 -60 4z"/>
<path d="M979 1913 c-2 -154 2 -346 7 -354 3 -5 97 -9 209 -9 l204 0 -2 208
-2 207 -207 3 -208 2 -1 -57z"/>
<path d="M1779 1968 c-1 -2 -2 -96 -3 -210 l-2 -208 709 0 708 0 200 201 c110
110 197 204 194 210 -5 8 -1802 14 -1806 7z"/>
<path d="M3820 1668 c-96 -98 -186 -189 -199 -201 -14 -12 -161 -157 -327
-322 -224 -221 -305 -308 -309 -330 -4 -16 -9 -37 -12 -45 -8 -20 -12 -38 -18
-79 -2 -18 -8 -38 -13 -45 -5 -6 -8 -19 -7 -28 2 -10 -1 -20 -6 -24 -5 -3 -7
-10 -4 -15 4 -5 1 -9 -5 -9 -7 0 -10 -6 -7 -14 3 -8 3 -17 -1 -21 -4 -4 -7
-10 -8 -13 0 -4 -4 -14 -7 -22 -4 -8 -8 -26 -9 -40 -2 -14 -6 -27 -9 -30 -7
-5 -66 -206 -73 -250 -3 -14 -5 -25 -6 -25 -1 0 -4 -9 -7 -20 -9 -36 -3 -85
13 -110 25 -38 123 -35 241 6 48 17 95 33 103 34 8 2 15 4 15 5 0 2 28 9 50
12 11 2 23 7 26 11 3 4 21 9 40 11 19 2 41 6 49 9 31 11 196 61 214 64 11 2
25 8 33 14 7 6 13 8 13 4 0 -4 7 -2 15 5 8 7 15 9 15 5 0 -4 7 -2 15 5 8 7 15
11 15 8 0 -2 197 193 438 435 240 241 453 449 472 463 19 13 30 24 25 24 -5 0
8 17 28 38 l37 38 -316 317 c-174 174 -322 317 -328 316 -6 -1 -90 -82 -186
-181z m-531 -965 c47 -10 87 -21 89 -24 1 -3 18 -4 37 -3 36 3 47 -6 51 -40 1
-12 5 -32 9 -46 4 -14 8 -34 9 -45 1 -11 5 -26 9 -32 5 -7 5 -18 2 -23 -4 -6
-2 -17 4 -23 5 -7 10 -22 10 -32 0 -11 1 -28 3 -39 2 -12 -4 -20 -15 -22 -10
-1 -26 -6 -35 -10 -21 -9 -43 -15 -59 -16 -7 -1 -13 -5 -13 -10 0 -4 -3 -7 -7
-6 -5 1 -29 -4 -55 -11 -26 -7 -54 -11 -63 -8 -8 4 -15 3 -15 -2 0 -4 -26 -15
-57 -24 l-58 -16 -33 33 c-35 35 -46 63 -30 83 5 7 7 16 4 22 -3 5 -3 11 2 13
12 5 87 262 83 286 -3 16 25 15 128 -5z"/>
</g>
</svg>
