<?xml version="1.0" encoding="UTF-8" standalone="no"?>
<svg
   width="192"
   height="23"
   viewBox="0 0 192 23"
   fill="none"
   classname="Logo__Desktop"
   version="1.1"
   id="svg47"
   sodipodi:docname="lefebvre-novela.svg"
   inkscape:version="1.1.1 (3bf5ae0d25, 2021-09-20)"
   xmlns:inkscape="http://www.inkscape.org/namespaces/inkscape"
   xmlns:sodipodi="http://sodipodi.sourceforge.net/DTD/sodipodi-0.dtd"
   xmlns="http://www.w3.org/2000/svg"
   xmlns:svg="http://www.w3.org/2000/svg">
  <defs
     id="defs51" />
  <sodipodi:namedview
     id="namedview49"
     pagecolor="#ffffff"
     bordercolor="#666666"
     borderopacity="1.0"
     inkscape:pageshadow="2"
     inkscape:pageopacity="0.0"
     inkscape:pagecheckerboard="0"
     showgrid="false"
     inkscape:zoom="6.1113661"
     inkscape:cx="55.388598"
     inkscape:cy="-1.5544806"
     inkscape:window-width="2560"
     inkscape:window-height="1009"
     inkscape:window-x="1358"
     inkscape:window-y="-8"
     inkscape:window-maximized="1"
     inkscape:current-layer="text45" />
  <g
     clippath="url(#clip0)"
     id="g39">
    <path
       class="change-fill"
       d="M17.5907 20.2954H0V23H17.5907V20.2954Z"
       fill="#000"
       id="path31" />
    <path
       class="change-fill"
       d="M0 7.96484V18.9537L5.38796 15.1843V11.7343L0 7.96484Z"
       fill="#000"
       id="path33" />
    <path
       class="change-fill"
       d="M17.5689 10.9463V0L12.1597 3.74815V7.13426L17.5689 10.9463Z"
       fill="#000"
       id="path35" />
    <path
       class="change-fill"
       d="M17.5907 18.975L17.5694 12.288L0 0V6.62315L17.5907 18.975Z"
       fill="#000"
       id="path37" />
  </g>
  <g
     aria-label="lefebvre saboya"
     transform="matrix(0.88174036,0,0,1.1341207,-0.65451812,-0.16362953)"
     id="text45"
     style="font-size:22.9881px;font-family:'Modern No. 20';letter-spacing:-0.443646px;word-spacing:0px;text-transform:lowercase;text-anchor:middle;white-space:pre;opacity:1;fill:#333333;stroke-width:1.07759">
    <path
       d="M 30.643365,0.61324163 26.28823,1.140801 v 0.8755242 l 0.875517,0.2244933 c 0.639801,0.1571456 0.740822,0.3255153 0.740822,0.9428723 V 15.351232 c 0,0.695929 -0.190818,0.864297 -1.616339,1.01022 v 0.987771 h 5.971475 v -0.987771 c -1.425521,-0.145923 -1.61634,-0.314291 -1.61634,-1.01022 z"
       style="font-weight:500;font-family:'New York Small';-inkscape-font-specification:'New York Small, Medium';stroke-width:1.07758"
       id="path31176" />
    <path
       d="m 33.499749,11.770563 c 0,3.65924 2.52553,5.836825 5.803106,5.836825 1.975525,0 3.569416,-0.684703 4.422484,-1.661248 v -0.987773 c -0.6847,0.617358 -1.829607,1.010221 -2.918391,1.010221 -2.604101,0 -4.321462,-1.683702 -4.512279,-4.411294 h 7.67761 c 0.02245,-0.213269 0.0449,-0.538784 0.0449,-0.8643 0,-3.041885 -1.773484,-4.9276296 -4.916365,-4.9276296 -3.288801,0 -5.601064,2.4357533 -5.601065,6.0051986 z m 5.578614,-4.6919121 c 1.526543,0 2.390835,1.1561407 2.390835,3.2663781 v 0.07857 h -5.174529 c 0.157144,-2.2673822 1.257152,-3.3449501 2.783694,-3.3449501 z"
       style="font-weight:500;font-family:'New York Small';-inkscape-font-specification:'New York Small, Medium';stroke-width:1.07758"
       id="path31178" />
    <path
       d="M 49.735827,15.205311 V 7.3031442 l 3.221453,0.056123 v -1.34696 L 49.735827,6.057206 V 3.9132941 c 0,-1.5041054 0.56123,-2.2224842 1.492869,-2.2224842 0.07856,0 0.145918,0.011225 0.213267,0.022449 -0.190817,0.1908196 -0.303064,0.4714363 -0.303064,0.7745021 0,0.6959296 0.505107,1.1898151 1.189806,1.1898151 0.66225,0 1.17858,-0.5051101 1.17858,-1.1898151 0,-1.077568 -0.965313,-1.98676618 -2.716347,-1.98676618 -2.301039,0 -3.771458,1.43675748 -3.771458,4.26537438 v 1.2571626 l -1.638789,0.5836829 v 0.7520526 h 1.61634 v 7.9919647 c 0,0.695929 -0.190818,0.864297 -1.61634,1.01022 v 0.987771 h 6.162294 v -0.987771 c -1.605116,-0.145923 -1.807158,-0.303068 -1.807158,-1.156141 z"
       style="font-weight:500;font-family:'New York Small';-inkscape-font-specification:'New York Small, Medium';stroke-width:1.07758"
       id="path31180" />
    <path
       d="m 53.467725,11.770563 c 0,3.65924 2.52553,5.836825 5.803107,5.836825 1.975526,0 3.569416,-0.684703 4.422483,-1.661248 v -0.987773 c -0.684699,0.617358 -1.829606,1.010221 -2.918389,1.010221 -2.604103,0 -4.321462,-1.683702 -4.512281,-4.411294 h 7.677612 c 0.02245,-0.213269 0.0449,-0.538784 0.0449,-0.8643 0,-3.041885 -1.773483,-4.9276296 -4.916365,-4.9276296 -3.2888,0 -5.601064,2.4357533 -5.601064,6.0051986 z m 5.578616,-4.6919121 c 1.526542,0 2.390835,1.1561407 2.390835,3.2663781 v 0.07857 h -5.174531 c 0.157146,-2.2673822 1.257154,-3.3449501 2.783696,-3.3449501 z"
       style="font-weight:500;font-family:'New York Small';-inkscape-font-specification:'New York Small, Medium';stroke-width:1.07758"
       id="path31182" />
    <path
       d="m 77.628356,11.534844 c 0,-3.614343 -2.11022,-5.780704 -4.624526,-5.780704 -1.672461,0 -3.142881,0.7969516 -3.749008,1.964317 V 0.61324163 L 64.899687,1.140801 v 0.8755242 l 0.875516,0.2244933 c 0.639801,0.1571456 0.740822,0.3255153 0.740822,0.9428723 V 17.349223 h 1.07756 l 1.122457,-1.358185 c 0.639801,0.875525 1.941853,1.605125 3.502067,1.605125 3.019411,0 5.410247,-2.413301 5.410247,-6.061319 z m -2.839817,0.224494 c 0,2.806166 -1.335725,4.467418 -3.243904,4.467418 -1.122457,0 -1.930625,-0.527559 -2.289813,-1.088795 V 8.6276551 c 0.426533,-0.785727 1.302051,-1.2347138 2.390834,-1.2347138 1.896955,0 3.142883,1.6275773 3.142883,4.3663967 z"
       style="font-weight:500;font-family:'New York Small';-inkscape-font-specification:'New York Small, Medium';stroke-width:1.07758"
       id="path31184" />
    <path
       d="m 79.687792,8.8296992 3.423497,8.5195238 h 1.683685 l 3.423495,-8.5082993 c 0.617351,-1.51533 0.83062,-1.6724755 1.941853,-1.8408454 V 6.0123075 h -4.53473 v 0.9877708 c 1.504094,0.1234709 1.76226,0.3816386 1.290826,1.650026 L 84.716401,14.50938 82.527611,8.6501043 c -0.471433,-1.2683874 -0.213269,-1.5265551 1.2796,-1.650026 V 6.0123075 h -6.061272 v 0.9877708 c 1.111233,0.2244932 1.380625,0.4602114 1.941853,1.8296209 z"
       style="font-weight:500;font-family:'New York Small';-inkscape-font-specification:'New York Small, Medium';stroke-width:1.07758"
       id="path31186" />
    <path
       d="M 94.891214,5.8663865 90.580976,6.393946 v 0.8979738 l 0.875518,0.2132687 c 0.6398,0.1571449 0.740822,0.3142901 0.740822,0.9428718 v 6.9031717 c 0,0.695929 -0.190818,0.864297 -1.61634,1.01022 v 0.987771 H 96.74327 V 16.361452 C 95.138155,16.215529 94.936112,16.058384 94.936112,15.205311 V 9.177664 c 0.56123,-0.6285815 1.964302,-1.0663439 3.243904,-1.0663439 0.51633,0 1.021435,0.056123 1.290826,0.1459212 0.14592,-0.2132687 0.235719,-0.5949079 0.235719,-0.9765467 0,-0.7969514 -0.370414,-1.4816558 -1.358178,-1.4816558 -1.100008,0 -2.155118,0.8530747 -3.468394,2.6265723 z"
       style="font-weight:500;font-family:'New York Small';-inkscape-font-specification:'New York Small, Medium';stroke-width:1.07758"
       id="path31188" />
    <path
       d="m 100.19456,11.770563 c 0,3.65924 2.52552,5.836825 5.80309,5.836825 1.97552,0 3.56943,-0.684703 4.42249,-1.661248 v -0.987773 c -0.6847,0.617358 -1.8296,1.010221 -2.91838,1.010221 -2.60412,0 -4.32148,-1.683702 -4.51229,-4.411294 h 7.67761 c 0.0225,-0.213269 0.0449,-0.538784 0.0449,-0.8643 0,-3.041885 -1.77349,-4.9276296 -4.91636,-4.9276296 -3.28881,0 -5.60106,2.4357533 -5.60106,6.0051986 z m 5.5786,-4.6919121 c 1.52654,0 2.39084,1.1561407 2.39084,3.2663781 v 0.07857 h -5.17453 c 0.15715,-2.2673828 1.25715,-3.3449506 2.78369,-3.3449506 z"
       style="font-weight:500;font-family:'New York Small';-inkscape-font-specification:'New York Small, Medium';stroke-width:1.07758"
       id="path31190" />
    <path
       d="m 117.83904,9.1103159 c 0,1.8632951 1.39184,2.8622891 3.50207,3.4122991 l 0.98777,0.258166 c 1.50408,0.40409 2.08776,0.897975 2.08776,1.807173 0,0.965323 -0.88674,1.650026 -2.33471,1.650026 -1.75103,0 -3.04187,-0.920422 -3.4235,-2.604123 h -0.92041 l 0.0786,2.895965 c 0.92041,0.572458 2.49186,1.032667 4.33269,1.032667 2.75001,0 4.78167,-1.358183 4.78167,-3.457195 0,-1.896969 -1.24594,-2.918414 -3.44595,-3.490872 l -0.97654,-0.258168 c -1.3694,-0.3591894 -2.15511,-0.7969513 -2.15511,-1.7510482 0,-0.9540968 0.88673,-1.5265549 2.23369,-1.5265549 1.51531,0 2.64899,0.8418501 2.98573,2.3571804 h 0.90919 l -0.0786,-2.8286165 C 125.685,6.1582277 124.33806,5.75414 122.54212,5.75414 c -2.89593,0 -4.70309,1.2908366 -4.70309,3.3561759 z"
       style="font-weight:500;font-family:'New York Small';-inkscape-font-specification:'New York Small, Medium';fill:#7a8085;stroke-width:1.07758"
       id="path31192" />
    <path
       d="m 131.88634,17.607388 c 1.71735,0 3.12042,-0.774501 3.7939,-1.706147 0.28062,1.043893 1.20102,1.638801 2.41328,1.638801 0.87551,0 1.58267,-0.280617 1.99798,-0.572457 v -0.920424 c -0.15714,0.06735 -0.38164,0.10102 -0.61735,0.10102 -0.65103,0 -1.20103,-0.347965 -1.20103,-1.335736 V 9.4695054 c 0,-2.5592249 -1.71736,-3.7153654 -4.48983,-3.7153654 -2.75003,0 -4.90514,1.1449164 -4.90514,2.7388191 0,0.7969516 0.61734,1.3469602 1.44797,1.3469602 0.8306,0 1.44797,-0.5724581 1.44797,-1.3357355 0,-0.4602112 -0.2245,-0.8642993 -0.56123,-1.1000173 0.48265,-0.2132687 1.06633,-0.3255156 1.70612,-0.3255156 1.59391,0 2.66024,0.6734801 2.66024,2.6377972 v 0.8081759 l -2.62655,0.572458 c -3.17656,0.69593 -4.44494,1.807172 -4.44494,3.625569 0,1.672474 1.40308,2.884737 3.37861,2.884737 z m -0.65103,-3.344949 c 0,-1.144916 0.78572,-1.807172 2.85103,-2.267385 l 1.49288,-0.314289 v 3.311277 c -0.46022,0.662257 -1.31328,1.088794 -2.32349,1.088794 -1.16736,0 -2.02042,-0.673481 -2.02042,-1.818397 z"
       style="font-weight:500;font-family:'New York Small';-inkscape-font-specification:'New York Small, Medium';fill:#7a8085;stroke-width:1.07758"
       id="path31194" />
    <path
       d="m 152.99387,11.534844 c 0,-3.614343 -2.11021,-5.780704 -4.62452,-5.780704 -1.67247,0 -3.14288,0.7969516 -3.74901,1.964317 V 0.61324163 L 140.26521,1.140801 v 0.8755242 l 0.87552,0.2244933 c 0.63979,0.1571456 0.74082,0.3255153 0.74082,0.9428723 V 17.349223 h 1.07756 l 1.12246,-1.358185 c 0.63979,0.875525 1.94184,1.605125 3.50207,1.605125 3.0194,0 5.41023,-2.413301 5.41023,-6.061319 z m -2.83981,0.224494 c 0,2.806166 -1.33573,4.467418 -3.24391,4.467418 -1.12246,0 -1.93062,-0.527559 -2.28981,-1.088795 V 8.6276551 c 0.42654,-0.785727 1.30205,-1.2347138 2.39084,-1.2347138 1.89696,0 3.14288,1.6275773 3.14288,4.3663967 z"
       style="font-weight:500;font-family:'New York Small';-inkscape-font-specification:'New York Small, Medium';fill:#7a8085;stroke-width:1.07758"
       id="path31196" />
    <path
       d="m 160.5758,17.607388 c 3.47963,0 6.06127,-2.458202 6.06127,-5.982747 0,-3.4571976 -2.48063,-5.870501 -5.88167,-5.870501 -3.47963,0 -6.05005,2.4469777 -6.05005,5.982749 0,3.457198 2.48064,5.870499 5.87045,5.870499 z m 0.1796,-1.324509 c -1.8296,0 -3.14289,-1.840846 -3.14289,-4.75926 0,-2.7724926 1.08879,-4.4449681 2.96329,-4.4449681 1.8296,0 3.1541,1.8408454 3.1541,4.7592591 0,2.772493 -1.08878,4.444969 -2.9745,4.444969 z"
       style="font-weight:500;font-family:'New York Small';-inkscape-font-specification:'New York Small, Medium';fill:#7a8085;stroke-width:1.07758"
       id="path31198" />
    <path
       d="m 168.6853,8.3743444 3.47962,7.1519846 c -0.93165,1.402164 -2.13268,3.171339 -2.89594,4.272369 v 0.04707 h 2.50308 l 1.87451,-4.32883 0.93162,-1.900925 2.57044,-5.2322399 c 0.62858,-1.2798286 0.85306,-1.4021656 1.98674,-1.5433231 V 6.0123103 h -4.5684 v 0.8281245 c 1.51532,0.1035153 1.75104,0.3105466 1.25715,1.3833441 l -2.22246,4.7899471 -2.12144,-4.7899471 c -0.4602,-1.0633898 -0.23572,-1.2704208 1.26837,-1.3833468 V 6.0123075 h -5.99391 v 0.8281246 c 1.1,0.1882098 1.36938,0.3764198 1.93062,1.5339123 z"
       style="font-weight:500;font-family:'New York Small';-inkscape-font-specification:'New York Small, Medium';fill:#7a8085;stroke-width:0.98667"
       id="path31200" />
    <path
       d="m 182.66523,17.607388 c 1.71736,0 3.12044,-0.774501 3.79392,-1.706147 0.2806,1.043893 1.20101,1.638801 2.41327,1.638801 0.87552,0 1.58265,-0.280617 1.99798,-0.572457 v -0.920424 c -0.15715,0.06735 -0.38164,0.10102 -0.61735,0.10102 -0.65103,0 -1.20104,-0.347965 -1.20104,-1.335736 V 9.4695054 c 0,-2.5592249 -1.71735,-3.7153654 -4.48982,-3.7153654 -2.75003,0 -4.90515,1.1449164 -4.90515,2.7388191 0,0.7969516 0.61735,1.3469602 1.44797,1.3469602 0.83063,0 1.44797,-0.5724581 1.44797,-1.3357355 0,-0.4602112 -0.22449,-0.8642993 -0.56123,-1.1000173 0.48266,-0.2132687 1.06633,-0.3255156 1.70614,-0.3255156 1.59389,0 2.66021,0.6734801 2.66021,2.6377972 v 0.8081759 l -2.62655,0.572458 c -3.17654,0.69593 -4.44491,1.807172 -4.44491,3.625569 0,1.672474 1.40306,2.884737 3.37859,2.884737 z m -0.65103,-3.344949 c 0,-1.144916 0.78573,-1.807172 2.85105,-2.267385 l 1.49285,-0.314289 v 3.311277 c -0.46019,0.662257 -1.31327,1.088794 -2.32347,1.088794 -1.16735,0 -2.02043,-0.673481 -2.02043,-1.818397 z"
       style="font-weight:500;font-family:'New York Small';-inkscape-font-specification:'New York Small, Medium';fill:#7a8085;stroke-width:1.07758"
       id="path31202" />
  </g>
</svg>
